<mxfile host="app.diagrams.net" modified="2023-05-27T00:11:38.292Z" agent="Mozilla/5.0 (Windows NT 10.0; Win64; x64) AppleWebKit/537.36 (KHTML, like Gecko) Chrome/113.0.0.0 Safari/537.36" version="21.3.4" etag="uzx2v9OYbo5MHeXPLV8t" type="github">
  <diagram name="第 1 页" id="xLQjTbIyrZmdNziZ_u1K">
    <mxGraphModel>
      <root>
        <mxCell id="0" />
        <mxCell id="1" parent="0" />
      </root>
    </mxGraphModel>
  </diagram>
</mxfile>
